<svg width="42" height="42" viewBox="0 0 42 42" fill="none" xmlns="http://www.w3.org/2000/svg">
    <g clip-path="url(#clip0_71_8690)">
        <rect x="0.5" y="0.5" width="41" height="41" rx="7.5" fill="#9A8CEB" />
        <rect x="0.5" y="0.5" width="41" height="41" rx="7.5" fill="url(#paint0_linear_71_8690)"
            fill-opacity="0.2" />
        <rect x="0.5" y="0.5" width="41" height="41" rx="7.5" stroke="#786DBA" />
        <path
            d="M12.2203 11.8696H23.9029C24.484 11.8696 25.0628 12.0273 25.5308 12.3626C26.069 12.7461 26.5754 13.4035 26.4624 14.4991C26.3878 15.2332 26.1323 15.7942 25.8293 16.2171C25.3093 16.9402 24.4343 17.3478 23.5253 17.3478H17.7869C16.9752 17.3478 16.2042 17.0148 15.6616 16.4297L12.4464 12.9652C12.4464 12.9652 11.3159 11.8696 12.2203 11.8696Z"
            fill="white" />
        <path
            d="M12.2195 18.7797H24.0237C24.1895 18.7797 24.3576 18.7774 24.5212 18.7562C27.7014 18.3475 28.4276 14.7183 28.0824 12.9072C27.9704 12.32 29.017 13.9267 29.6512 15.2562C30.3236 16.6656 30.3236 19.2495 29.4271 20.8938C28.1833 23.1747 25.8413 24.6522 22.7529 24.6522H17.7372C16.9326 24.6522 16.1684 24.2951 15.6305 23.668L12.4414 19.9542C12.4414 19.9542 11.3208 18.7797 12.2172 18.7797H12.2195Z"
            fill="white" />
        <path
            d="M23.737 26.0013C23.737 27.1539 23.737 29.5687 23.737 30.5811C23.737 30.8375 23.5249 31.0435 23.2659 31.0435H17.7141C16.9127 31.0435 16.1515 30.7104 15.6157 30.1253L12.4391 26.6609C12.4391 26.6609 11.3229 25.5652 12.2159 25.5652H23.2927C23.5383 25.5652 23.7392 25.7602 23.7392 26.0035L23.737 26.0013Z"
            fill="white" />
    </g>
    <defs>
        <linearGradient id="paint0_linear_71_8690" x1="21" y1="0" x2="21" y2="42"
            gradientUnits="userSpaceOnUse">
            <stop stop-color="#BDB4EE" />
            <stop offset="1" stop-opacity="0.32" />
        </linearGradient>
        <clipPath id="clip0_71_8690">
            <rect width="42" height="42" fill="white" />
        </clipPath>
    </defs>
</svg>
    