<svg width="24" height="24" viewBox="0 0 24 24" fill="none" xmlns="http://www.w3.org/2000/svg">
    <path
        d="M6.0901 13.28H9.1801V20.48C9.1801 22.16 10.0901 22.5 11.2001 21.24L18.7701 12.64C19.7001 11.59 19.3101 10.72 17.9001 10.72H14.8101V3.51999C14.8101 1.83999 13.9001 1.49999 12.7901 2.75999L5.2201 11.36C4.3001 12.42 4.6901 13.28 6.0901 13.28Z"
        stroke="#707070" stroke-width="1.5" stroke-miterlimit="10" stroke-linecap="round"
        stroke-linejoin="round" />
    <path d="M9 22H15C20 22 22 20 22 15V9C22 4 20 2 15 2H9C4 2 2 4 2 9V15C2 20 4 22 9 22Z"
        stroke="#707070" stroke-width="1.5" stroke-linecap="round" stroke-linejoin="round" />
</svg>
    