<svg width="13" height="13" viewBox="0 0 13 13" fill="none" xmlns="http://www.w3.org/2000/svg">
    <path
        d="M10.28 12.16C9.06 12.16 8.04 11.14 8.04 9.92V8.76H5.3V9.92C5.3 11.14 4.28 12.16 3.06 12.16C1.84 12.16 0.84 11.14 0.84 9.92C0.84 8.7 1.84 7.7 3.06 7.7H4.22V4.96H3.08C1.86 4.96 0.84 3.94 0.84 2.72C0.84 1.5 1.86 0.5 3.08 0.5C4.3 0.5 5.3 1.5 5.3 2.72V3.9H8.04V2.72C8.04 1.5 9.06 0.5 10.28 0.5C11.5 0.5 12.5 1.5 12.5 2.72C12.5 3.94 11.5 4.96 10.28 4.96H9.12V7.7H10.28C11.5 7.7 12.5 8.7 12.5 9.92C12.5 11.14 11.5 12.16 10.28 12.16ZM4.22 3.9V2.72C4.22 2.08 3.7 1.56 3.08 1.56C2.42 1.56 1.9 2.08 1.9 2.72C1.9 3.36 2.42 3.9 3.08 3.9H4.22ZM10.28 1.56C9.64 1.56 9.12 2.08 9.12 2.72V3.9H10.28C10.9 3.9 11.44 3.36 11.44 2.72C11.44 2.08 10.9 1.56 10.28 1.56ZM5.3 7.7H8.04V4.96H5.3V7.7ZM4.22 9.92V8.76H3.06C2.42 8.76 1.9 9.3 1.9 9.92C1.9 10.58 2.42 11.1 3.06 11.1C3.7 11.1 4.22 10.58 4.22 9.92ZM10.28 8.76H9.12V9.92C9.12 10.58 9.64 11.1 10.28 11.1C10.92 11.1 11.44 10.58 11.44 9.92C11.44 9.3 10.92 8.76 10.28 8.76Z"
        fill="#1A1D1F" />
</svg>
    