<svg width="24" height="24" viewBox="0 0 24 24" fill="none" xmlns="http://www.w3.org/2000/svg">
    <path d="M22 10.5V15.5C22 19 20 20.5 17 20.5H7C4 20.5 2 19 2 15.5V8.5C2 5 4 3.5 7 3.5H14"
        stroke="#17181A" stroke-width="1.5" stroke-miterlimit="10" stroke-linecap="round"
        stroke-linejoin="round" />
    <path d="M7 9L10.13 11.5C11.16 12.32 12.85 12.32 13.88 11.5L15.06 10.56" stroke="#17181A"
        stroke-width="1.5" stroke-miterlimit="10" stroke-linecap="round" stroke-linejoin="round" />
    <path
        d="M20 8C21.6569 8 23 6.65685 23 5C23 3.34315 21.6569 2 20 2C18.3431 2 17 3.34315 17 5C17 6.65685 18.3431 8 20 8Z"
        fill="#978AE1" />
</svg>
    