<svg width="35" height="35" viewBox="0 0 35 35" fill="none" xmlns="http://www.w3.org/2000/svg">
    <g id="vuesax/linear/more">
        <g id="more">
            <path id="Vector"
                d="M7.29167 14.5833C5.6875 14.5833 4.375 15.8958 4.375 17.5C4.375 19.1042 5.6875 20.4167 7.29167 20.4167C8.89583 20.4167 10.2083 19.1042 10.2083 17.5C10.2083 15.8958 8.89583 14.5833 7.29167 14.5833Z"
                fill="#667085" />
            <path id="Vector_2"
                d="M27.7082 14.5833C26.104 14.5833 24.7915 15.8958 24.7915 17.5C24.7915 19.1042 26.104 20.4167 27.7082 20.4167C29.3123 20.4167 30.6248 19.1042 30.6248 17.5C30.6248 15.8958 29.3123 14.5833 27.7082 14.5833Z"
                fill="#667085" />
            <path id="Vector_3"
                d="M17.5002 14.5833C15.896 14.5833 14.5835 15.8958 14.5835 17.5C14.5835 19.1042 15.896 20.4167 17.5002 20.4167C19.1043 20.4167 20.4168 19.1042 20.4168 17.5C20.4168 15.8958 19.1043 14.5833 17.5002 14.5833Z"
                fill="#667085" />
        </g>
    </g>
</svg>