<svg width="24" height="24" viewBox="0 0 24 24" fill="none" xmlns="http://www.w3.org/2000/svg">
    <path
        d="M12 17.0811V19.4611C12 21.3311 11.25 22.0811 9.37 22.0811H4.62C2.75 22.0811 2 21.3311 2 19.4611V14.7111C2 12.8311 2.75 12.0811 4.62 12.0811H7V14.4511C7 16.3311 7.75 17.0811 9.62 17.0811H12Z"
        stroke="#707070" stroke-width="2" stroke-linecap="round" stroke-linejoin="round" />
    <path
        d="M17 12.0811V14.4511C17 16.3311 16.25 17.0811 14.37 17.0811H9.62C7.75 17.0811 7 16.3311 7 14.4511V9.70105C7 7.83105 7.75 7.08105 9.62 7.08105H12V9.45105C12 11.3311 12.75 12.0811 14.62 12.0811H17Z"
        stroke="#707070" stroke-width="2" stroke-linecap="round" stroke-linejoin="round" />
    <path
        d="M22 4.70105V9.45105C22 11.3311 21.25 12.0811 19.37 12.0811H14.62C12.75 12.0811 12 11.3311 12 9.45105V4.70105C12 2.83105 12.75 2.08105 14.62 2.08105H19.37C21.25 2.08105 22 2.83105 22 4.70105Z"
        stroke="#707070" stroke-width="2" stroke-linecap="round" stroke-linejoin="round" />
</svg>
    