<svg width="24" height="24" viewBox="0 0 24 24" fill="none" xmlns="http://www.w3.org/2000/svg">
    <path
        d="M9.02 2.83998L3.63 7.03998C2.73 7.73998 2 9.22998 2 10.36V17.77C2 20.09 3.89 21.99 6.21 21.99H17.79C20.11 21.99 22 20.09 22 17.78V10.5C22 9.28998 21.19 7.73998 20.2 7.04998L14.02 2.71998C12.62 1.73998 10.37 1.78998 9.02 2.83998Z"
        stroke="#707070" stroke-width="1.5" stroke-linecap="round" stroke-linejoin="round" />
    <path
        d="M12 16C13.6569 16 15 14.6569 15 13C15 11.3431 13.6569 10 12 10C10.3431 10 9 11.3431 9 13C9 14.6569 10.3431 16 12 16Z"
        stroke="#707070" stroke-width="1.5" stroke-linecap="round" stroke-linejoin="round" />
</svg>
    