<svg xmlns="http://www.w3.org/2000/svg" width="76" height="60" viewBox="0 0 76 60" fill="none">
    <path
        d="M39.5803 14.6566L39.666 14.6797L39.6692 14.6763C40.1364 14.759 40.6168 14.5107 40.7615 14.0687C42.0464 10.1623 46.1016 7.41985 50.635 7.41985C51.1471 7.41985 51.5887 7.04076 51.5887 6.54264C51.5887 6.0445 51.1471 5.66543 50.635 5.66543C45.1002 5.66543 40.436 9.00021 38.9361 13.5606C38.7784 14.0393 39.0847 14.5228 39.5803 14.6566Z"
        fill="#9386DC" stroke="#F9FFF9" stroke-width="0.3" />
    <path
        d="M61.8865 42.1757H57.0643C56.6205 42.1757 56.2606 41.85 56.2606 41.4485C56.2606 41.0469 56.6205 40.7213 57.0643 40.7213H61.8865C68.5338 40.7213 73.9422 35.8277 73.9422 29.8133C73.9422 23.7988 68.5338 18.9053 61.8865 18.9053H61.7706C61.5375 18.9053 61.3159 18.8138 61.1632 18.6544C61.0105 18.4949 60.9416 18.2835 60.9749 18.0747C61.0467 17.6218 61.0828 17.1667 61.0828 16.7237C61.0828 11.5112 56.3954 7.27002 50.6345 7.27002C48.3933 7.27002 46.2559 7.90372 44.4533 9.10307C44.0572 9.36642 43.4946 9.24955 43.2655 8.8553C38.1602 0.0593297 24.8258 -1.12188 17.9125 6.52985C15.0003 9.7534 13.856 13.9467 14.7729 18.0337C14.874 18.4851 14.4922 18.9058 13.9853 18.9058H13.6632C7.01597 18.9058 1.60751 23.7994 1.60751 29.8138C1.60751 35.8282 7.01597 40.7218 13.6632 40.7218H18.4854C18.9292 40.7218 19.2892 41.0475 19.2892 41.449C19.2892 41.8505 18.9292 42.1762 18.4854 42.1762H13.6632C6.12948 42.1762 0 36.6303 0 29.8138C0 23.1885 5.79014 17.7635 13.0323 17.4643C12.352 13.2242 13.6529 8.94721 16.6679 5.60943C24.0695 -2.5835 38.2542 -1.66518 44.2503 7.47053C46.1632 6.38544 48.3521 5.8162 50.6342 5.8162C57.6139 5.8162 63.1446 11.1913 62.6607 17.4711C69.8361 17.8352 75.5494 23.2316 75.5494 29.8132C75.5494 36.6303 69.4199 42.1757 61.8862 42.1757L61.8865 42.1757Z"
        fill="#9386DC" />
    <path
        d="M17.424 41.0379C17.424 51.1591 26.5194 59.3681 37.6671 59.3681C48.8148 59.3681 57.9101 51.159 57.9101 41.0379C57.9101 30.9166 48.8148 22.7077 37.6671 22.7077C26.5193 22.7077 17.424 30.9168 17.424 41.0379ZM19.3318 41.0379C19.3318 31.9122 27.5427 24.4624 37.6671 24.4624C47.7913 24.4624 56.0023 31.9121 56.0023 41.0379C56.0023 50.1636 47.7913 57.6134 37.6671 57.6134C27.5428 57.6134 19.3318 50.1637 19.3318 41.0379Z"
        fill="#9386DC" stroke="#F9FFF9" stroke-width="0.3" />
    <path
        d="M37.2963 48.3564C37.2963 48.747 37.6415 49.0388 38.0347 49.0388C38.4279 49.0388 38.7731 48.7474 38.7731 48.3564V34.5141C38.7731 34.1235 38.428 33.8317 38.0347 33.8317C37.6414 33.8317 37.2963 34.1235 37.2963 34.5141V48.3564Z"
        fill="#9386DC" stroke="#483EA8" stroke-width="0.3" />
    <path
        d="M32.9105 39.1515L32.8106 39.262C32.5148 38.9944 32.5148 38.5541 32.8106 38.2866L37.5177 34.0275C37.5177 34.0275 37.5177 34.0275 37.5177 34.0275L37.5178 34.0274L32.9105 39.1515ZM32.9105 39.1515L32.8106 39.262M32.9105 39.1515L32.8106 39.262M32.8106 39.262C33.0975 39.5216 33.5573 39.5217 33.844 39.262H32.8106ZM42.2251 39.262C42.3699 39.393 42.5576 39.4566 42.7418 39.4566L33.8441 39.2619L38.0345 35.4704L42.2251 39.262ZM42.7418 39.4566C42.9256 39.4566 43.1135 39.3936 43.2585 39.262L42.7418 39.4566Z"
        fill="#9386DC" stroke="#483EA8" stroke-width="0.3" />
</svg>